<?xml version="1.0" encoding="UTF-8" ?>
<!DOCTYPE svg PUBLIC "-//W3C//DTD SVG 1.1//EN" "http://www.w3.org/Graphics/SVG/1.1/DTD/svg11.dtd">
<svg width="1254pt" height="1254pt" viewBox="0 0 1254 1254" version="1.1" xmlns="http://www.w3.org/2000/svg">
<g id="#fefefeff">
<path fill="#fefefe" opacity="1.00" d=" M 0.00 0.00 L 1254.00 0.00 L 1254.00 1254.00 L 0.00 1254.00 L 0.00 0.00 M 150.01 490.01 C 133.91 499.69 120.03 513.17 110.21 529.20 C 99.44 546.03 93.57 565.62 91.49 585.39 C 91.12 592.92 90.21 600.46 90.87 608.00 C 91.29 612.11 91.22 616.26 91.58 620.39 C 93.20 633.48 95.75 646.64 101.21 658.73 C 104.03 665.31 107.23 671.75 111.36 677.62 C 123.49 696.22 141.86 710.29 162.26 718.77 C 178.91 725.68 197.02 728.80 215.00 728.63 C 239.60 729.17 264.87 724.01 285.92 710.89 C 299.23 702.58 310.48 691.03 318.50 677.55 C 326.49 663.95 331.86 648.74 333.84 633.09 C 331.94 632.62 330.00 632.31 328.04 632.37 C 316.69 632.46 305.33 632.41 293.98 632.39 C 292.11 632.49 290.04 632.25 288.43 633.39 C 287.32 635.92 287.06 638.72 286.30 641.37 C 284.50 647.66 281.98 653.82 278.13 659.15 C 268.70 673.46 252.25 681.66 235.78 684.80 C 227.01 686.85 217.96 686.45 209.03 686.34 C 192.00 685.19 174.75 679.69 161.85 668.17 C 149.72 657.18 142.16 641.85 138.98 625.93 C 136.04 613.18 135.99 599.98 136.79 586.99 C 138.56 570.45 144.45 554.03 155.17 541.16 C 169.92 523.47 193.26 514.40 216.00 514.57 C 234.79 513.96 254.65 518.40 269.39 530.63 C 278.19 537.90 283.85 548.41 286.53 559.41 C 286.94 561.03 287.25 562.69 287.83 564.27 C 288.57 565.86 290.53 565.52 291.96 565.64 C 304.63 565.52 317.29 565.56 329.96 565.63 C 331.54 565.87 333.68 564.89 333.25 563.00 C 331.58 549.78 327.08 536.98 320.78 525.27 C 308.60 503.07 287.36 486.41 263.39 478.57 C 253.44 475.25 243.04 473.50 232.62 472.45 C 224.73 472.04 216.82 472.09 208.92 472.27 C 188.32 473.71 167.76 479.27 150.01 490.01 M 434.41 542.48 C 412.24 544.21 390.40 553.79 375.13 570.14 C 352.64 594.88 344.94 631.19 352.57 663.41 C 356.86 683.35 368.90 701.72 386.06 712.91 C 402.21 723.56 421.70 728.55 440.95 728.58 C 451.82 728.84 462.74 727.34 473.16 724.17 C 484.80 720.84 495.27 714.24 504.32 706.31 C 515.65 696.10 523.74 682.47 527.70 667.78 C 528.52 663.63 529.77 659.38 529.21 655.12 C 528.12 654.02 526.41 654.39 525.03 654.24 C 514.02 654.35 503.01 654.21 492.00 654.29 C 490.80 654.41 489.13 654.15 488.54 655.52 C 487.04 658.83 486.40 662.46 484.82 665.75 C 478.18 681.42 460.48 690.08 444.00 689.40 C 435.15 689.78 426.17 687.90 418.41 683.58 C 410.32 678.88 403.82 671.53 400.08 662.96 C 395.84 653.61 394.35 643.22 394.59 633.01 C 394.70 621.53 397.63 609.84 404.30 600.36 C 408.82 594.16 414.84 588.92 421.95 585.90 C 430.50 582.06 440.05 580.86 449.35 581.56 C 457.59 582.34 466.00 584.25 472.91 589.04 C 479.97 593.59 484.69 601.14 486.95 609.12 C 487.41 610.56 487.82 612.04 488.58 613.38 C 490.10 614.57 492.18 614.18 493.99 614.33 C 503.32 614.23 512.66 614.23 522.00 614.34 C 524.27 614.27 526.63 614.49 528.82 613.74 C 529.86 612.38 529.26 610.54 529.25 608.99 C 527.85 597.28 523.40 585.97 516.68 576.30 C 501.71 555.48 476.42 543.35 451.03 542.34 C 445.49 542.16 439.94 542.20 434.41 542.48 M 539.64 542.61 C 536.88 543.96 537.49 547.48 537.98 549.93 C 540.17 560.26 543.02 570.44 545.25 580.76 C 548.12 594.04 551.66 607.15 554.64 620.40 C 562.31 650.60 569.05 681.02 576.65 711.23 C 577.69 715.24 578.17 719.41 579.73 723.27 C 580.78 724.50 582.51 724.23 583.96 724.34 C 602.32 724.29 620.69 724.34 639.05 724.32 C 640.35 724.35 642.20 724.14 642.50 722.55 C 647.37 704.71 651.96 686.79 656.97 668.99 C 660.82 653.19 665.36 637.57 669.51 621.84 C 671.20 625.06 672.00 628.62 672.93 632.12 C 680.21 659.48 687.66 686.81 694.80 714.21 C 695.67 717.28 696.02 720.56 697.55 723.42 C 698.81 724.37 700.45 724.26 701.97 724.34 C 719.65 724.32 737.34 724.30 755.03 724.35 C 756.47 724.15 758.34 724.63 759.45 723.43 C 760.67 721.35 761.01 718.91 761.62 716.62 C 775.53 661.35 789.96 606.22 803.99 550.99 C 804.38 548.31 805.83 544.67 803.39 542.59 C 792.28 542.08 781.12 542.61 770.00 542.37 C 767.30 542.47 764.48 542.01 761.88 542.83 C 760.13 544.15 760.11 546.63 759.53 548.58 C 752.73 581.32 744.74 613.79 737.40 646.41 C 734.49 659.01 731.78 671.67 728.82 684.26 C 726.95 681.27 726.57 677.70 725.55 674.41 C 714.42 632.98 703.11 591.60 691.88 550.20 C 691.10 547.67 690.94 544.85 689.40 542.64 C 687.63 542.28 685.81 542.33 684.03 542.33 C 674.67 542.45 665.31 542.43 655.96 542.34 C 654.28 542.39 652.52 542.23 650.94 542.87 C 650.03 543.82 649.83 545.19 649.42 546.40 C 644.92 562.64 640.70 578.96 636.19 595.20 C 633.41 606.55 629.73 617.65 626.97 629.00 C 621.83 647.40 616.67 665.79 611.48 684.18 C 609.99 682.23 609.95 679.69 609.48 677.40 C 606.41 661.25 603.04 645.16 600.00 629.01 C 595.72 609.37 592.44 589.53 588.06 569.92 C 586.45 562.09 585.12 554.20 583.56 546.36 C 583.27 545.12 583.00 543.80 582.14 542.83 C 580.81 542.37 579.39 542.41 578.02 542.37 C 568.02 542.42 558.01 542.44 548.00 542.39 C 545.21 542.41 542.40 542.16 539.64 542.61 M 901.33 545.26 C 889.18 549.52 879.12 558.48 872.13 569.15 C 870.03 572.45 868.40 576.02 866.19 579.25 C 865.91 567.59 866.32 555.92 865.74 544.27 C 864.74 542.66 862.66 542.82 861.04 542.77 C 850.02 542.87 838.99 542.80 827.97 542.81 C 826.41 542.83 824.85 542.87 823.39 543.39 C 822.23 544.59 822.62 546.45 822.46 547.97 C 822.37 597.98 822.16 647.99 822.14 698.00 C 822.17 706.68 821.83 715.36 822.21 724.04 C 829.45 724.65 836.73 724.18 844.00 724.32 C 850.95 724.21 857.93 724.66 864.86 723.99 C 865.07 721.32 865.22 718.65 865.22 715.99 C 865.14 690.99 865.20 665.99 865.16 641.00 C 865.19 636.01 865.07 631.01 865.40 626.03 C 866.51 614.56 869.30 602.76 876.56 593.53 C 886.03 581.69 904.51 578.86 917.39 586.57 C 922.93 589.78 926.56 595.45 928.63 601.39 C 931.36 609.28 932.62 617.67 932.43 626.01 C 932.33 658.64 932.54 691.28 932.33 723.91 C 936.85 724.60 941.44 724.28 946.00 724.32 C 954.34 724.33 962.68 724.31 971.02 724.33 C 972.79 724.21 974.83 724.58 976.32 723.32 C 976.90 720.25 976.52 717.09 976.60 714.00 C 976.59 686.01 976.57 658.02 976.58 630.03 C 977.20 617.57 979.88 604.65 987.31 594.36 C 996.51 581.49 1016.06 578.54 1029.30 586.68 C 1033.05 588.91 1035.92 592.36 1037.82 596.27 C 1042.30 605.11 1043.66 615.18 1043.71 624.99 C 1043.72 651.66 1043.72 678.33 1043.72 705.00 C 1043.75 711.37 1043.52 717.74 1043.94 724.11 C 1051.61 724.57 1059.31 724.20 1067.00 724.33 C 1073.68 724.23 1080.38 724.57 1087.05 724.08 C 1087.17 722.05 1087.30 720.03 1087.32 718.01 C 1087.29 686.01 1087.35 654.01 1087.30 622.01 C 1086.66 605.56 1084.22 588.87 1077.21 573.83 C 1072.96 564.45 1066.31 556.01 1057.60 550.40 C 1048.20 544.57 1037.01 541.72 1025.96 542.34 C 1011.49 542.05 997.32 548.03 986.63 557.64 C 979.67 564.16 974.47 572.24 969.89 580.53 C 966.93 574.92 965.06 568.76 961.49 563.47 C 956.38 555.98 949.40 549.48 940.87 546.14 C 928.33 541.29 914.06 540.91 901.33 545.26 M 1130.38 670.48 C 1124.53 671.44 1118.74 674.32 1115.29 679.27 C 1112.14 683.50 1110.96 688.83 1110.65 694.00 C 1110.36 700.26 1110.68 706.81 1113.51 712.54 C 1116.51 718.90 1123.07 723.19 1129.98 724.06 C 1133.97 724.55 1138.01 724.45 1142.04 724.30 C 1148.93 723.93 1155.68 720.24 1159.28 714.27 C 1163.30 707.65 1163.75 699.50 1162.93 691.98 C 1162.25 684.78 1158.97 677.23 1152.45 673.53 C 1145.81 669.68 1137.78 669.71 1130.38 670.48 Z" />
</g>
<g id="#000000ff">
<path fill="#000000" opacity="1.00" d=" M 150.01 490.01 C 167.76 479.27 188.32 473.71 208.92 472.27 C 216.82 472.09 224.73 472.04 232.62 472.45 C 243.04 473.50 253.44 475.25 263.39 478.57 C 287.36 486.41 308.60 503.07 320.78 525.27 C 327.08 536.98 331.58 549.78 333.25 563.00 C 333.68 564.89 331.54 565.87 329.96 565.63 C 317.29 565.56 304.63 565.52 291.96 565.64 C 290.53 565.52 288.57 565.86 287.83 564.27 C 287.25 562.69 286.94 561.03 286.53 559.41 C 283.85 548.41 278.19 537.90 269.39 530.63 C 254.65 518.40 234.79 513.96 216.00 514.57 C 193.26 514.40 169.92 523.47 155.17 541.16 C 144.45 554.03 138.56 570.45 136.79 586.99 C 135.99 599.98 136.04 613.18 138.98 625.93 C 142.16 641.85 149.72 657.18 161.85 668.17 C 174.75 679.69 192.00 685.19 209.03 686.34 C 217.96 686.45 227.01 686.85 235.78 684.80 C 252.25 681.66 268.70 673.46 278.13 659.15 C 281.98 653.82 284.50 647.66 286.30 641.37 C 287.06 638.72 287.32 635.92 288.43 633.39 C 290.04 632.25 292.11 632.49 293.98 632.39 C 305.33 632.41 316.69 632.46 328.04 632.37 C 330.00 632.31 331.94 632.62 333.84 633.09 C 331.86 648.74 326.49 663.95 318.50 677.55 C 310.48 691.03 299.23 702.58 285.92 710.89 C 264.87 724.01 239.60 729.17 215.00 728.63 C 197.02 728.80 178.91 725.68 162.26 718.77 C 141.86 710.29 123.49 696.22 111.36 677.62 C 107.23 671.75 104.03 665.31 101.21 658.73 C 95.75 646.64 93.20 633.48 91.58 620.39 C 91.22 616.26 91.29 612.11 90.87 608.00 C 90.21 600.46 91.12 592.92 91.49 585.39 C 93.57 565.62 99.44 546.03 110.21 529.20 C 120.03 513.17 133.91 499.69 150.01 490.01 Z" />
<path fill="#000000" opacity="1.00" d=" M 434.41 542.48 C 439.94 542.20 445.49 542.16 451.03 542.34 C 476.42 543.35 501.71 555.48 516.68 576.30 C 523.40 585.97 527.85 597.28 529.25 608.99 C 529.26 610.54 529.86 612.38 528.82 613.74 C 526.63 614.49 524.27 614.27 522.00 614.34 C 512.66 614.23 503.32 614.23 493.99 614.33 C 492.18 614.18 490.10 614.57 488.58 613.38 C 487.82 612.04 487.41 610.56 486.95 609.12 C 484.69 601.14 479.97 593.59 472.91 589.04 C 466.00 584.25 457.59 582.34 449.35 581.56 C 440.05 580.86 430.50 582.06 421.95 585.90 C 414.84 588.92 408.82 594.16 404.30 600.36 C 397.63 609.84 394.70 621.53 394.59 633.01 C 394.35 643.22 395.84 653.61 400.08 662.96 C 403.82 671.53 410.32 678.88 418.41 683.58 C 426.17 687.90 435.15 689.78 444.00 689.40 C 460.48 690.08 478.18 681.42 484.82 665.75 C 486.40 662.46 487.04 658.83 488.54 655.52 C 489.13 654.15 490.80 654.41 492.00 654.29 C 503.01 654.21 514.02 654.35 525.03 654.24 C 526.41 654.39 528.12 654.02 529.21 655.12 C 529.77 659.38 528.52 663.63 527.70 667.78 C 523.74 682.47 515.65 696.10 504.32 706.31 C 495.27 714.24 484.80 720.84 473.16 724.17 C 462.74 727.34 451.82 728.84 440.95 728.58 C 421.70 728.55 402.21 723.56 386.06 712.91 C 368.90 701.72 356.86 683.35 352.57 663.41 C 344.94 631.19 352.64 594.88 375.13 570.14 C 390.40 553.79 412.24 544.21 434.41 542.48 Z" />
<path fill="#000000" opacity="1.00" d=" M 539.64 542.61 C 542.40 542.16 545.21 542.41 548.00 542.39 C 558.01 542.44 568.02 542.42 578.02 542.37 C 579.39 542.41 580.81 542.37 582.14 542.83 C 583.00 543.80 583.27 545.12 583.56 546.36 C 585.12 554.20 586.45 562.09 588.06 569.92 C 592.44 589.53 595.72 609.37 600.00 629.01 C 603.04 645.16 606.41 661.25 609.48 677.40 C 609.95 679.69 609.99 682.23 611.48 684.18 C 616.67 665.79 621.83 647.40 626.97 629.00 C 629.73 617.65 633.41 606.55 636.19 595.20 C 640.70 578.96 644.92 562.64 649.42 546.40 C 649.83 545.19 650.03 543.82 650.94 542.87 C 652.52 542.23 654.28 542.39 655.96 542.34 C 665.31 542.43 674.67 542.45 684.03 542.33 C 685.81 542.33 687.63 542.28 689.40 542.64 C 690.94 544.85 691.10 547.67 691.88 550.20 C 703.11 591.60 714.42 632.98 725.55 674.41 C 726.57 677.70 726.95 681.27 728.82 684.26 C 731.78 671.67 734.49 659.01 737.40 646.41 C 744.74 613.79 752.73 581.32 759.53 548.58 C 760.11 546.63 760.13 544.15 761.88 542.83 C 764.48 542.01 767.30 542.47 770.00 542.37 C 781.12 542.61 792.28 542.08 803.39 542.59 C 805.83 544.67 804.38 548.31 803.99 550.99 C 789.96 606.22 775.53 661.35 761.62 716.62 C 761.01 718.91 760.67 721.35 759.45 723.43 C 758.34 724.63 756.47 724.15 755.03 724.35 C 737.34 724.30 719.65 724.32 701.97 724.34 C 700.45 724.26 698.81 724.37 697.55 723.42 C 696.02 720.56 695.67 717.28 694.80 714.21 C 687.66 686.81 680.21 659.48 672.93 632.12 C 672.00 628.62 671.20 625.06 669.51 621.84 C 665.36 637.57 660.82 653.19 656.97 668.99 C 651.96 686.79 647.37 704.71 642.50 722.55 C 642.20 724.14 640.35 724.35 639.05 724.32 C 620.69 724.34 602.32 724.29 583.96 724.34 C 582.51 724.23 580.78 724.50 579.73 723.27 C 578.17 719.41 577.69 715.24 576.65 711.23 C 569.05 681.02 562.31 650.60 554.64 620.40 C 551.66 607.15 548.12 594.04 545.25 580.76 C 543.02 570.44 540.17 560.26 537.98 549.93 C 537.49 547.48 536.88 543.96 539.64 542.61 Z" />
<path fill="#000000" opacity="1.00" d=" M 901.33 545.26 C 914.06 540.91 928.33 541.29 940.87 546.14 C 949.40 549.48 956.38 555.98 961.49 563.47 C 965.06 568.76 966.93 574.92 969.89 580.53 C 974.47 572.24 979.67 564.16 986.63 557.64 C 997.32 548.03 1011.49 542.05 1025.96 542.34 C 1037.01 541.72 1048.20 544.57 1057.60 550.40 C 1066.31 556.01 1072.96 564.45 1077.21 573.83 C 1084.22 588.87 1086.66 605.56 1087.30 622.01 C 1087.35 654.01 1087.29 686.01 1087.32 718.01 C 1087.30 720.03 1087.17 722.05 1087.05 724.08 C 1080.38 724.57 1073.68 724.23 1067.00 724.33 C 1059.31 724.20 1051.61 724.57 1043.94 724.11 C 1043.52 717.74 1043.75 711.37 1043.72 705.00 C 1043.72 678.33 1043.72 651.66 1043.71 624.99 C 1043.66 615.18 1042.30 605.11 1037.82 596.27 C 1035.92 592.36 1033.05 588.91 1029.30 586.68 C 1016.06 578.54 996.51 581.49 987.31 594.36 C 979.88 604.65 977.20 617.57 976.58 630.03 C 976.57 658.02 976.59 686.01 976.60 714.00 C 976.52 717.09 976.90 720.25 976.32 723.32 C 974.83 724.58 972.79 724.21 971.02 724.33 C 962.68 724.31 954.34 724.33 946.00 724.32 C 941.44 724.28 936.85 724.60 932.33 723.91 C 932.54 691.28 932.33 658.64 932.43 626.01 C 932.62 617.67 931.36 609.28 928.63 601.39 C 926.56 595.45 922.93 589.78 917.39 586.57 C 904.51 578.86 886.03 581.69 876.56 593.53 C 869.30 602.76 866.51 614.56 865.40 626.03 C 865.07 631.01 865.19 636.01 865.16 641.00 C 865.20 665.99 865.14 690.99 865.22 715.99 C 865.22 718.65 865.07 721.32 864.86 723.99 C 857.93 724.66 850.95 724.21 844.00 724.32 C 836.73 724.18 829.45 724.65 822.21 724.04 C 821.83 715.36 822.17 706.68 822.14 698.00 C 822.16 647.99 822.37 597.98 822.46 547.97 C 822.62 546.45 822.23 544.59 823.39 543.39 C 824.85 542.87 826.41 542.83 827.97 542.81 C 838.99 542.80 850.02 542.87 861.04 542.77 C 862.66 542.82 864.74 542.66 865.74 544.27 C 866.32 555.92 865.91 567.59 866.19 579.25 C 868.40 576.02 870.03 572.45 872.13 569.15 C 879.12 558.48 889.18 549.52 901.33 545.26 Z" />
<path fill="#000000" opacity="1.00" d=" M 1130.38 670.48 C 1137.78 669.71 1145.81 669.68 1152.45 673.53 C 1158.97 677.23 1162.25 684.78 1162.93 691.98 C 1163.75 699.50 1163.30 707.65 1159.28 714.27 C 1155.68 720.24 1148.93 723.93 1142.04 724.30 C 1138.01 724.45 1133.97 724.55 1129.98 724.06 C 1123.07 723.19 1116.51 718.90 1113.51 712.54 C 1110.68 706.81 1110.36 700.26 1110.65 694.00 C 1110.96 688.83 1112.14 683.50 1115.29 679.27 C 1118.74 674.32 1124.53 671.44 1130.38 670.48 Z" />
</g>
</svg>
